<svg id="レイヤー_1" xmlns="http://www.w3.org/2000/svg" xmlns:xlink="http://www.w3.org/1999/xlink" viewBox="0 0 300 300"><style>.st0,.st1{fill:none}.st1{stroke:#333;stroke-width:1.44}.st2{fill:url(#SVGID_1_)}.st3{fill:#fff}.st4{fill:#fae03c}.st5{fill:#333}.st6{fill:#fae03c;stroke:#333;stroke-width:3;stroke-miterlimit:10}.st7{fill:url(#SVGID_2_)}.st8{fill:none;stroke:#333;stroke-width:3;stroke-miterlimit:10}.st9{fill:url(#SVGID_3_)}.st10{clip-path:url(#SVGID_5_);fill:#333}.st11{fill:url(#SVGID_6_)}.st12{fill:url(#SVGID_7_)}.st13{fill:url(#SVGID_8_)}.st14{fill:url(#SVGID_9_)}.st15{fill:url(#SVGID_10_)}.st16{fill:url(#SVGID_11_)}.st17{fill:url(#SVGID_12_)}.st18{fill:url(#SVGID_13_)}.st19,.st20{clip-path:url(#SVGID_15_);fill:#333}.st20{clip-path:url(#SVGID_17_)}</style><pattern x="-640" y="-335" width="72" height="72" patternUnits="userSpaceOnUse" id="_x31_0_lpi_20_x25__2" viewBox="72.2 -72 72 72" overflow="visible"><path class="st0" d="M72.2-72h72V0h-72z"/><path class="st1" d="M144-3.6h72.5M144-18h72.5M144-32.4h72.5M144-46.8h72.5M144-61.2h72.5M144-10.8h72.5M144-25.2h72.5M144-39.6h72.5M144-54h72.5M144-68.4h72.5"/><g><path class="st1" d="M72-3.6h72.5M72-18h72.5M72-32.4h72.5M72-46.8h72.5M72-61.2h72.5M72-10.8h72.5M72-25.2h72.5M72-39.6h72.5M72-54h72.5M72-68.4h72.5"/></g><g><path class="st1" d="M0-3.6h72.5M0-18h72.5M0-32.4h72.5M0-46.8h72.5M0-61.2h72.5M0-10.8h72.5M0-25.2h72.5M0-39.6h72.5M0-54h72.5M0-68.4h72.5"/></g></pattern><g id="レイヤー_2"><pattern id="SVGID_1_" xlink:href="#_x31_0_lpi_20_x25__2" patternTransform="scale(.5) rotate(-45 -17943.374 -1826.882)"/><circle class="st2" cx="150" cy="150" r="150"/><circle class="st3" cx="150" cy="150" r="135"/><path class="st5" d="M120.3 189.9c29.1 4 57.7 7.9 86.9 11.9-9.9-16.6-19.6-32.7-29.4-48.9l-57.5 37zm95.1-91.6c-2.6 3.9-5.1 7.7-7.7 11.6-8.8 13.2-17.6 26.5-26.4 39.8-.5.7-1.1 1.3-.4 2.5 8.5 14 16.9 28.1 25.4 42.2 1.3 2.2 2.7 4.4 4.4 6.6 1.7-34.1 3.4-68.3 5.1-102.4 0-.2-.4-.3-.4-.3zm-116 43.8c.4.4 1.4.6 1.9.4 8.2-4 16.4-7.9 24.3-12.3 2.6-1.4 4.6-3.9 6.8-6l22.2-20.4c.5-.4 1-.8 1.3-1.4 2.7-5.2 5.3-10.4 8-15.8-3.2-1.2-6.3-2.4-9.4-3.5-.4-.1-1.1.1-1.5.4-7.2 4-14.5 7.8-21.4 12.2-3.5 2.2-6.3 5.4-9.4 8.2-5 4.5-9.9 9.1-14.8 13.7-1.3 1.2-2.5 2.6-3.5 4.1-3.3 4.9-6.6 9.8-10 14.9 1.9 1.9 3.6 3.8 5.5 5.5zm29.8-6.7c-4.1 17.1-8.1 34.2-12.3 51.8 19.5-12.6 38.6-24.9 57.6-37.1-15.1-4.9-30.1-9.7-45.3-14.7zm81.2-36.9c-16.5 2.8-32.6 5.5-48.9 8.2 5.6 13.5 11 26.8 16.6 40.4 10.8-16.3 21.5-32.3 32.3-48.6zm-80.6 33.4c14.9 4.8 29.4 9.6 44.4 14.4-5.6-13.6-10.9-26.7-16.4-40-9.3 8.6-18.5 17-28 25.6zM100 152.1c-5.3 12.6-10.4 24.8-15.5 37.2 10-.3 19.6-.6 29.6-.9-4.7-12.1-9.3-24-14.1-36.3zm14.4 27.7l.4-.1c3.6-14.8 7.2-29.5 10.8-44.8-8.1 4.2-15.8 8.2-23.8 12.3 4 10.5 8.4 21.6 12.6 32.6zm90.1-83.7c-4.7-1.3-9.5-2.5-14.2-3.8l-20.4-5.4c-.8-.2-1.5-.4-2 .7-2.4 4.9-4.9 9.8-7.3 14.7-.1.2-.1.3-.1.7 14.7-2.2 29.4-4.4 44-6.7v-.2zM177 84.9l38.5 10.7c-2.2-6.3-4.3-12.1-6.4-18.1L177 84.6c.1-.1 0 .3 0 .3zm-59.3 107.9c-4.8-.6-9.7 0-14.5 0-4 .1-8 .2-11.9.3-.4 0-.8.1-1.2.5 32.9 3 65.8 6.1 98.6 9.1l.1-.4c-10.5-1.4-21.1-2.9-31.6-4.3-13.3-1.7-26.4-3.7-39.5-5.2zm-32.6-14.9c4.2-9.8 8.5-19.7 12.7-29.5.4-1 .4-1.7-.4-2.4-1.8-1.7-3.4-3.5-5.4-5.5-2.6 13-5.2 25.6-7.8 38.3l.3.1c.2-.3.4-.6.6-1zm83.5-95.6c7.1-1.8 14.4-3.3 21.6-4.9.5-.1.9-.3 1.4-.4l-.1-.4c-10.2 1.4-20.3 2.7-31 4.2 2.9 1.3 5.2 2.3 8.1 1.5z"/></g></svg>