<svg id="レイヤー_1" xmlns="http://www.w3.org/2000/svg" xmlns:xlink="http://www.w3.org/1999/xlink" viewBox="0 0 300 300"><style>.st0,.st1{fill:none}.st1{stroke:#333;stroke-width:1.44}.st2{fill:url(#SVGID_1_)}.st3{fill:#fff}.st4{fill:#fae03c}.st5{fill:#333}.st6{fill:#fae03c;stroke:#333;stroke-width:3;stroke-miterlimit:10}.st7{fill:url(#SVGID_2_)}.st8{fill:none;stroke:#333;stroke-width:3;stroke-miterlimit:10}.st9{fill:url(#SVGID_3_)}.st10{clip-path:url(#SVGID_5_);fill:#333}</style><pattern x="-320" width="72" height="72" patternUnits="userSpaceOnUse" id="_x31_0_lpi_20_x25__2" viewBox="72.2 -72 72 72" overflow="visible"><path class="st0" d="M72.2-72h72V0h-72z"/><path class="st1" d="M144-3.6h72.5M144-18h72.5M144-32.4h72.5M144-46.8h72.5M144-61.2h72.5M144-10.8h72.5M144-25.2h72.5M144-39.6h72.5M144-54h72.5M144-68.4h72.5M72-3.6h72.5M72-18h72.5M72-32.4h72.5M72-46.8h72.5M72-61.2h72.5M72-10.8h72.5M72-25.2h72.5M72-39.6h72.5M72-54h72.5M72-68.4h72.5M0-3.6h72.5M0-18h72.5M0-32.4h72.5M0-46.8h72.5M0-61.2h72.5M0-10.8h72.5M0-25.2h72.5M0-39.6h72.5M0-54h72.5M0-68.4h72.5"/></pattern><g id="レイヤー_3"><pattern id="SVGID_1_" xlink:href="#_x31_0_lpi_20_x25__2" patternTransform="rotate(-45 -10194.096 -1274.202) scale(.5)"/><circle class="st2" cx="150" cy="150" r="150"/><circle class="st3" cx="150" cy="150" r="135"/><path class="st8" d="M93.8 81.9H59.7c-4.1 0-7.5 3.4-7.5 7.5v119.8c0 4.1 3.4 7.5 7.5 7.5h34.1c4.1 0 7.5-3.4 7.5-7.5V89.4c0-4.2-3.4-7.5-7.5-7.5zM86 174.5H67.4V163H86v11.5zm0-20.3H67.4v-52.4H86v52.4zm66-72.3h-34.1c-4.1 0-7.5 3.4-7.5 7.5v119.8c0 4.1 3.4 7.5 7.5 7.5H152c4.1 0 7.5-3.4 7.5-7.5V89.4c0-4.2-3.4-7.5-7.5-7.5zm-7.8 92.6h-18.6V163h18.6v11.5zm0-20.3h-18.6v-52.4h18.6v52.4zm0 0"/><path class="st6" d="M247.5 198.5l-31-111c-1.1-3.8-5.1-6.1-8.9-5l-31.5 8.8c-3.8 1.1-6.1 5.1-5 8.9l31 111c1.1 3.8 5.1 6.1 8.9 5l31.5-8.8c3.9-1.1 6.1-5.1 5-8.9zm-45.6-42.3l-13.6-48.5 17.2-4.8 13.6 48.5-17.2 4.8zm5.3 18.8l-3-10.6 17.2-4.8 3 10.6-17.2 4.8zm0 0"/></g></svg>