<svg id="レイヤー_1" xmlns="http://www.w3.org/2000/svg" xmlns:xlink="http://www.w3.org/1999/xlink" viewBox="0 0 300 300"><style>.st0,.st1{fill:none}.st1{stroke:#333;stroke-width:1.44}.st2{fill:url(#SVGID_1_)}.st3{fill:#fff}.st4{fill:#fae03c}.st5{fill:#333}.st6{fill:#fae03c;stroke:#333;stroke-width:3;stroke-miterlimit:10}.st7{fill:url(#SVGID_2_)}.st8{fill:none;stroke:#333;stroke-width:3;stroke-miterlimit:10}.st9{fill:url(#SVGID_3_)}.st10{clip-path:url(#SVGID_5_);fill:#333}</style><pattern width="72" height="72" patternUnits="userSpaceOnUse" id="_x31_0_lpi_20_x25__2" viewBox="72.2 -72 72 72" overflow="visible"><path class="st0" d="M72.2-72h72V0h-72z"/><path class="st1" d="M144-3.6h72.5M144-18h72.5M144-32.4h72.5M144-46.8h72.5M144-61.2h72.5M144-10.8h72.5M144-25.2h72.5M144-39.6h72.5M144-54h72.5M144-68.4h72.5M72-3.6h72.5M72-18h72.5M72-32.4h72.5M72-46.8h72.5M72-61.2h72.5M72-10.8h72.5M72-25.2h72.5M72-39.6h72.5M72-54h72.5M72-68.4h72.5M0-3.6h72.5M0-18h72.5M0-32.4h72.5M0-46.8h72.5M0-61.2h72.5M0-10.8h72.5M0-25.2h72.5M0-39.6h72.5M0-54h72.5M0-68.4h72.5"/></pattern><g id="レイヤー_4"><pattern id="SVGID_1_" xlink:href="#_x31_0_lpi_20_x25__2" patternTransform="rotate(-45 -10441.329 -1063.554) scale(.5)"/><circle class="st2" cx="150" cy="150" r="150"/><circle class="st3" cx="150" cy="150" r="135"/><path class="st4" d="M52.7 197.4c4.6 1 7.5 4.7 8.1 8.1.6-3.3 3.5-7.1 8.1-8.1-4.6-1-7.5-4.7-8.1-8.1-.7 3.3-3.5 7.1-8.1 8.1zm133.2-85.1c3.7.8 6 3.8 6.4 6.4.5-2.7 2.8-5.7 6.4-6.4-3.7-.8-6-3.8-6.4-6.4-.4 2.6-2.7 5.6-6.4 6.4zm-60.7 89.9c3.7.8 6 3.8 6.4 6.4.5-2.7 2.8-5.7 6.4-6.4-3.7-.8-6-3.8-6.4-6.4-.4 2.6-2.7 5.6-6.4 6.4zm-50.5-76c6 1.2 9.7 6.1 10.5 10.5.8-4.3 4.5-9.2 10.5-10.5-6-1.2-9.7-6.1-10.5-10.5-.8 4.4-4.5 9.3-10.5 10.5zM218 151.3c5 1 8.1 5.1 8.7 8.7.6-3.6 3.7-7.7 8.7-8.7-5-1-8.1-5.1-8.7-8.7-.6 3.6-3.7 7.7-8.7 8.7zM109.6 78.8c3.7.8 6 3.8 6.4 6.4.5-2.7 2.8-5.7 6.4-6.4-3.7-.8-6-3.8-6.4-6.4-.5 2.6-2.8 5.6-6.4 6.4z"/><path class="st5" d="M92.2 160.6c-.2-3.3-4.5-5.8-10.2-5.8-5.8 0-10.1 2.5-10.2 5.8v1.2c0 3.4 4.4 5.9 10.3 5.9 5.8 0 10.2-2.6 10.3-5.9l-.2-1.2zM82 163.9c-4.5 0-7.4-1.8-7.4-3.1s2.9-3.1 7.4-3.1 7.4 1.8 7.4 3.1c0 1.2-2.9 3.1-7.4 3.1z"/><path class="st5" d="M92.1 166.2c-.9 1.2-2.4 2.2-4.3 2.9-1.3.7-3.3 1.3-5.8 1.3-2.4 0-4.3-.5-5.6-1.2-2-.7-3.5-1.7-4.5-3-.1.3-.1.6-.2.9v1.2c0 3.4 4.4 5.9 10.3 5.9 5.8 0 10.2-2.6 10.3-6V167c-.1-.2-.2-.5-.2-.8z"/><path class="st5" d="M92.1 172.7c-.9 1.2-2.4 2.2-4.3 2.9-1.3.7-3.3 1.3-5.8 1.3-2.4 0-4.3-.5-5.6-1.2-2-.7-3.5-1.7-4.5-3-.1.3-.1.6-.2.9v1.2c0 3.4 4.4 5.9 10.3 5.9 5.8 0 10.2-2.6 10.3-5.9v-1.2c-.1-.3-.2-.6-.2-.9z"/><path class="st5" d="M92.1 179.2c-.9 1.2-2.4 2.2-4.3 2.9-1.3.7-3.3 1.3-5.8 1.3-2.4 0-4.3-.5-5.6-1.2-2-.7-3.5-1.7-4.5-3-.1.3-.1.6-.2.9v1.2c0 3.4 4.4 5.9 10.3 5.9 5.8 0 10.2-2.6 10.3-6V180c-.1-.2-.2-.5-.2-.8z"/><path class="st5" d="M92.1 185.7c-.9 1.2-2.4 2.2-4.3 2.9-1.3.7-3.3 1.3-5.8 1.3-2.4 0-4.3-.5-5.6-1.2-2-.7-3.5-1.7-4.5-3-.1.3-.1.6-.2.9v1.2c0 3.4 4.4 5.9 10.3 5.9 5.8 0 10.2-2.6 10.3-6v-1.2c-.1-.2-.2-.5-.2-.8z"/><path class="st5" d="M92.1 192.3c-.9 1.2-2.4 2.2-4.3 2.9-1.3.7-3.3 1.3-5.8 1.3-2.4 0-4.3-.5-5.6-1.2-2-.7-3.5-1.7-4.5-3-.1.3-.1.6-.2.9v1.2c0 3.4 4.4 5.9 10.3 5.9 5.8 0 10.2-2.6 10.3-5.9v-1.2c-.1-.4-.2-.7-.2-.9z"/><path class="st5" d="M92.1 198.8c-.9 1.2-2.4 2.2-4.3 2.9-1.3.7-3.3 1.3-5.8 1.3-2.4 0-4.3-.5-5.6-1.2-2-.7-3.5-1.7-4.5-3-.1.3-.1.6-.2.9v1.2c0 3.4 4.4 5.9 10.3 5.9 5.8 0 10.2-2.6 10.3-5.9v-1.2c-.1-.3-.2-.6-.2-.9z"/><path class="st5" d="M92.1 205.3c-.9 1.2-2.4 2.2-4.3 2.9-1.3.7-3.3 1.3-5.8 1.3-2.4 0-4.3-.5-5.6-1.2-2-.7-3.5-1.7-4.5-3-.1.3-.1.6-.2.9v1.2c0 3.4 4.4 5.9 10.3 5.9 5.8 0 10.2-2.6 10.3-5.9v-1.2c-.1-.3-.2-.6-.2-.9z"/><path class="st5" d="M92.1 211.8c-.9 1.2-2.4 2.2-4.3 2.9-1.3.7-3.3 1.3-5.8 1.3-2.4 0-4.3-.5-5.6-1.2-2-.7-3.5-1.7-4.5-3-.1.3-.1.6-.2.9v1.2c0 3.4 4.4 5.9 10.3 5.9 5.8 0 10.2-2.6 10.3-5.9v-1.2c-.1-.3-.2-.6-.2-.9zm24.2-30.6c-.2-3.3-4.5-5.8-10.2-5.8-5.8 0-10.1 2.5-10.2 5.8v1.2c0 3.4 4.4 5.9 10.3 5.9 5.8 0 10.2-2.6 10.3-6l-.2-1.1zm-10.3 3.3c-4.5 0-7.4-1.8-7.4-3.1s2.9-3.1 7.4-3.1 7.4 1.8 7.4 3.1c0 1.2-2.8 3.1-7.4 3.1z"/><path class="st5" d="M116.1 186.8c-.9 1.2-2.4 2.2-4.3 2.9-1.3.7-3.3 1.3-5.8 1.3-2.4 0-4.3-.5-5.6-1.2-2-.7-3.5-1.7-4.5-3-.1.3-.1.6-.2.9v1.2c0 3.4 4.4 5.9 10.3 5.9 5.8 0 10.2-2.6 10.3-6v-1.2c0-.2-.1-.5-.2-.8z"/><path class="st5" d="M116.1 193.3c-.9 1.2-2.4 2.2-4.3 2.9-1.3.7-3.3 1.3-5.8 1.3-2.4 0-4.3-.5-5.6-1.2-2-.7-3.5-1.7-4.5-3-.1.3-.1.6-.2.9v1.2c0 3.4 4.4 5.9 10.3 5.9 5.8 0 10.2-2.6 10.3-5.9v-1.2c0-.3-.1-.6-.2-.9z"/><path class="st5" d="M116.1 199.8c-.9 1.2-2.4 2.2-4.3 2.9-1.3.7-3.3 1.3-5.8 1.3-2.4 0-4.3-.5-5.6-1.2-2-.7-3.5-1.7-4.5-3-.1.3-.1.6-.2.9v1.2c0 3.4 4.4 5.9 10.3 5.9 5.8 0 10.2-2.6 10.3-6v-1.2c0-.2-.1-.5-.2-.8z"/><path class="st5" d="M116.1 206.3c-.9 1.2-2.4 2.2-4.3 2.9-1.3.7-3.3 1.3-5.8 1.3-2.4 0-4.3-.5-5.6-1.2-2-.7-3.5-1.7-4.5-3-.1.3-.1.6-.2.9v1.2c0 3.4 4.4 5.9 10.3 5.9 5.8 0 10.2-2.6 10.3-5.9v-1.2c0-.3-.1-.6-.2-.9z"/><path class="st5" d="M116.1 212.9c-.9 1.2-2.4 2.2-4.3 2.9-1.3.7-3.3 1.3-5.8 1.3-2.4 0-4.3-.5-5.6-1.2-2-.7-3.5-1.7-4.5-3-.1.3-.1.6-.2.9v1.2c0 3.4 4.4 5.9 10.3 5.9 5.8 0 10.2-2.6 10.3-5.9v-1.2c0-.3-.1-.6-.2-.9zm116.6-37.8l7.7 7.3H178l7.7-7.3h47m1.1-2.8h-49.3L171 185.2h76.2l-13.4-12.9zM171.1 188h76.3v2.8h-76.3zm0 6h76.3v2.8h-76.3zm0 6h76.3v2.8h-76.3zm0 6h76.3v2.8h-76.3zm0 6h76.3v2.8h-76.3zm0 6h76.3v2.8h-76.3z"/><path class="st6" d="M164.1 180.7c-.8 1.6-1.9 3.1-3.5 4.3-1.6 1.2-3.6 2.2-5.9 2.9-1.2.3-2.5.6-3.8.8v4.6h-6.8V189c-2.5-.1-4.9-.5-7.1-1-2.6-.6-4.7-1.4-6.3-2.4-.4-.2-.4-.3-.4-1.2v-5.8c0-.4.1-.4.2-.4s.3 0 .4.1c.6.3 1.1.6 1.8.9 1.4.7 2.9 1.3 4.4 1.8 1.5.5 3 .9 4.5 1.2 1.5.3 2.9.5 4.2.5 3.2 0 5.5-.6 7-1.9 1.6-1.3 2.4-2.9 2.4-4.8 0-1-.2-1.8-.5-2.6s-1-1.6-1.8-2.3c-.8-.6-1.9-1.2-3.3-1.8-1.4-.6-3.1-1.2-5.2-1.8-2.7-.9-5.1-1.8-6.9-2.8-1.8-.9-3.2-2-4.3-3.1-1-1.1-1.8-2.3-2.2-3.5-.5-1.3-.7-2.7-.7-4.2 0-1.9.5-3.7 1.4-5.3 1-1.6 2.3-3 4-4.2 1.7-1.2 3.7-2.1 6.1-2.8.8-.2 1.6-.4 2.4-.5v-4.5h6.8v4.1c1.9.1 3.8.2 5.6.6 2 .3 3.9.9 5.7 1.7.3.1.4.2.4.6v6c0 .1-.1.1-.2.1s-.3 0-.3-.1c-1.6-.6-3.3-1.1-5.1-1.5-2.5-.6-5-.9-7.4-.9-3 0-5.3.6-6.9 1.7-1.7 1.2-2.5 2.8-2.5 4.8 0 .8.2 1.6.5 2.4.4.7 1 1.4 1.8 2.1.8.6 1.8 1.2 3.2 1.8 1.3.6 2.9 1.2 4.9 1.8 2.6.8 4.9 1.7 6.8 2.6 1.8.9 3.4 1.9 4.6 2.9 1.1 1 2 2.2 2.5 3.5.5 1.3.8 2.9.8 4.7-.2 1.7-.6 3.5-1.3 5.2z"/><path class="st5" d="M147.8 214.5c-10.8-.1-20.6-2.7-28.5-7.5v4.3c8.1 4.4 17.8 6.8 28.4 6.9h.7c6.6 0 12.9-.9 18.7-2.7v-3.9c-5.7 1.9-12 2.8-18.7 2.8l-.6.1zm29.9-82.8c-8.6-8.6-13.8-14.2-11-20.2l8.8-19.8c.3-.7.2-1.5-.4-2.1-.6-.5-1.4-.7-2.1-.4l-9.6 4.4-5.5-5.3c-.7-.6-1.7-.7-2.4-.1l-6.5 5.1-6.4-5.2c-.7-.6-1.8-.6-2.4.1l-5.6 5.2-9.5-4.6c-.7-.3-1.5-.2-2.1.3-.6.5-.7 1.4-.4 2.1l8.4 20c2.7 6-2.6 11.5-11.4 19.9-10.1 9.7-22.7 21.8-23.2 40.8 0 1.2 0 2.3.1 3.5 1-.6 2.2-1.3 3.7-1.8V172c.4-17.5 12.4-28.9 22-38.2 8.6-8.3 16.1-15.4 12.3-24.1L128 94.3l6.2 3c.7.3 1.5.2 2.1-.3l5.4-4.9 6.3 5.1c.7.5 1.6.6 2.3 0l6.4-5 5.2 5c.6.5 1.4.7 2.1.3l6.3-2.9-6.8 15.3c-4 8.6 3.3 15.9 11.8 24.4 8.6 8.6 19.2 19.2 21 34.3h3.7c-1.9-16.6-13.1-27.8-22.3-36.9z"/></g></svg>