<svg version="1" xmlns="http://www.w3.org/2000/svg" width="588" height="588" viewBox="0 0 441.000000 441.000000"><path d="M15.1 63.2c-.1 34.8-.2 64-.2 64.8.5 106.3.4 185-.1 185-.4 0-.3 1.3.2 3 .5 1.9.5 3-.1 3s-.7.4-.4 1c.3.5.6 8.2.7 17.1.1 22 2.2 31.2 9.8 44 2.1 3.6 6.3 9.1 9.3 12.2 3 3.1 5.2 5.9 4.8 6.2-.3.4-.1.5.4.3.6-.1 3.1 1.2 5.6 2.9 6.2 4.3 17 9.6 24.5 12.2 5.6 1.9 7.1 2.3 14.2 3.6 1.5.3 3.8.8 5.2 1.1 2.4.6 14.8.9 67 1.8 12.9.2 24.5.6 25.6.9 1.2.3 3.7.8 5.5 1.1 10.3 1.6 18.1 6.3 23.7 14.3 2.3 3.3 2.4 3.3 10.5 3.3h8.2l3.6-4.8c2-2.6 4.1-4.6 4.8-4.4.7.1 1-.1.7-.6-1-1.7 10-6.7 17.3-7.8 1.8-.3 4.3-.8 5.5-1.1 1.1-.3 12.7-.7 25.6-.9 52.8-.9 64.6-1.2 67.5-1.8 2.3-.5 10.1-2.3 13.5-3.1 23.3-5.9 43.7-21.5 52.8-40.5 7.1-14.7 6.6 1 6.8-197.3L427.8 0H15.3l-.2 63.2zm251.2 375.3c0 .8.4 1.2.9.9.5-.3.6-1 .3-1.5-.9-1.3-1.2-1.1-1.2.6z"/></svg>