<svg id="Layer_1" xmlns="http://www.w3.org/2000/svg" viewBox="0 0 108.6 120.4"><style>.st0{fill:#fff}</style><path d="M52.6 117.1c-2.8-5.5-6.3-6.3-19.1-6.3h-9.1c-6.8 0-13-1.9-17.4-5.4-4.5-3.5-7-8.6-7-14.2V0h108.6v91.2c0 5.6-2.5 10.7-7.1 14.3-4.4 3.5-10.6 5.4-17.4 5.4H75c-12.8 0-16.4.7-19.2 6.3l-1.7 3.3-1.5-3.4z"/><path class="st0" d="M106.8 1.7v89.5c0 10.6-9.5 18-22.6 18-19.6 0-25.9-.9-29.9 7.2-4-8.1-10.3-7.2-29.9-7.2-13.1 0-22.6-7.3-22.6-18V1.7h105z"/><path d="M53.6 56s-14.3-6.7-10.4-19.1c2.1 5.3 5.3 5.8 5.3 5.8s-1.2-7.1 5.8-14c7 9 5.4 14.5 5.4 14.5s4.2-2.1 4.6-6.1c3.4 6 .2 11.8-2.9 13.8-3.1 2.1-7.8 5.1-7.8 5.1"/><path d="M41.2 44.5s-8.7-8.7.6-19.8c1 5 2.9 5 3.9 5-.1-5.6 8.4-13.7 9-16.3 1 3.7 8 9.4 8.4 16.8.8-.3 3.2-.5 3.6-5 7.7 13.4 1 20.1 1 20.1s1.6-8.5-4-11.7c-.2 3-1.5 4.3-2.1 4.2-.1-6.7-7.4-12.2-7.4-14.1-.1 1.9-7.6 7.6-7.8 14.1-.4-.2-1.7-.8-2.8-4.7-4.9 4.8-2.4 11.4-2.4 11.4zM7.4 65.6h13.7v1.5H7.4zm79.4 0h13.7v1.5H86.8zM43.6 75.8c.4 0 18.1-12.2 23.7-16.1 1.3-.9 1.9-2.3 1.8-3.9v-.2c-.4-3.1-3.9-4.6-6.5-2.9L40.6 68c-1.6 1-2.2 3-1.6 4.7.5 1.6 1.8 3.1 4.6 3.1z"/><path class="st0" d="M67.4 56.5c0 .2-.1.3-.2.4-2.2 2.3-5.1 4-7.7 5.9-4.7 3.4-8.9 7.7-13.8 10.8 1.6-1.4 3.1-2.9 4.7-4.5-2.2.9-4.3 1.9-6.4 3 1.9-2.1 3.9-4.1 5.8-6.2-.6.6-1.4.7-2.1 1.1-.5.3-1 .7-1.4 1.2-1.2 1.1-2.5 2.1-4 2.9-.5-.6-1.1-1.2-1.5-1.8-.1-.1-.2-.3-.2-.4 0-.2.1-.3.2-.4.6-.6 1.3-.9 2-1.3 3.7-2 7.5-3.9 11-6.2 3.5-2.3 6.9-4.9 10.4-7.1-.6 1.3-1.6 2.4-2.7 3.2 1.6-.6 3.2-1.5 4.6-2.4-1 1.2-2 2.4-3.2 3.3-1.5 1.1-3.2 1.8-4.4 3.3 2.6-1.2 5.2-2.5 7.1-4.6.2-.2.5-.5.8-.6.6-.2 1 .1 1 .4z"/><path d="M64.2 75.8c-.4 0-18.1-12.2-23.7-16.1-1.3-.9-1.9-2.3-1.8-3.9v-.2c.4-3.1 3.9-4.6 6.5-2.9l22 15.1c1.5 1.1 2.2 3 1.6 4.8-.4 1.7-1.7 3.2-4.6 3.2z"/><path class="st0" d="M40.5 56.5c0 .2.1.3.2.4 2.2 2.3 5.1 4 7.7 5.9 4.7 3.4 8.9 7.7 13.8 10.8-1.6-1.4-3.1-2.9-4.7-4.5 2.2.9 4.3 1.9 6.4 3-2-2.1-3.9-4.2-5.9-6.3.6.6 1.4.7 2.1 1.1.5.3 1 .7 1.4 1.2 1.2 1.1 2.5 2.1 4 2.9.5-.6 1.1-1.2 1.5-1.8.1-.1.2-.3.2-.4 0-.2-.1-.3-.2-.4-.6-.6-1.3-.9-2-1.3-3.7-2-7.5-3.9-11-6.2-3.5-2.3-6.9-4.9-10.4-7.1.6 1.3 1.6 2.4 2.7 3.2-1.6-.6-3.2-1.5-4.6-2.4 1 1.2 2 2.4 3.2 3.3 1.5 1.1 3.2 1.8 4.4 3.3-2.6-1.2-5.2-2.5-7.1-4.6-.2-.2-.5-.5-.8-.6-.6-.1-1 .2-.9.5z"/><path d="M39.5 70.7c.2-.3.6-.4.9-.3.3.1.6.3.9.5.4.4.7.9.7 1.4-.4-.2-.7-.3-1.1-.5.1.5.2 1 .4 1.6-.3.1-.7-.1-.9-.3-.2-.2-.4-.5-.6-.8-.2-.2-.3-.5-.4-.8-.1-.2-.1-.5.1-.8zm28.8 0c-.2-.3-.6-.4-.9-.3-.3.1-.6.3-.9.5-.4.4-.7.9-.7 1.4.4-.2.7-.3 1.1-.5-.1.5-.2 1-.4 1.6.3.1.7-.1.9-.3.2-.2.4-.5.6-.8.2-.2.3-.5.4-.8.1-.2.1-.5-.1-.8zm-38.5-5.3c-6.4-6.3-10.4-15-10.4-24.6 0-19 15.5-34.5 34.5-34.5s34.5 15.5 34.5 34.5c0 9.6-4 18.4-10.4 24.6h1.2c6.2-6.4 10-15.1 10-24.6 0-19.5-15.9-35.4-35.4-35.4S18.4 21.3 18.4 40.8c0 9.6 3.8 18.3 10 24.6h1.4z"/><path d="M31.8 65.4h.4c-6.8-6-11.1-14.8-11.1-24.6C21.1 22.7 35.8 7.9 54 7.9s32.9 14.7 32.9 32.9c0 9.8-4.3 18.6-11.1 24.6h.4c6.7-6.1 11-14.9 11-24.6C87.2 22.5 72.3 7.6 54 7.6c-18.3 0-33.2 14.9-33.2 33.2 0 9.7 4.2 18.5 11 24.6zm2.1 36V80.5h5.7v20.9h-5.7zm10.2-20.9h7.3c2.8 0 4.9.4 6.3 1.3 1.4.8 2.1 2.2 2.1 3.9 0 1.2-.3 2.2-.9 3-.6.8-1.4 1.4-2.4 1.6v.1c1.3.3 2.2.9 2.8 1.7.6.8.9 1.8.9 3.1 0 1.9-.7 3.4-2.1 4.5s-3.4 1.6-5.8 1.6h-8.1V80.5zm5.7 8h1.7c.8 0 1.4-.2 1.9-.5.4-.3.7-.8.7-1.5 0-1.2-.9-1.8-2.7-1.8h-1.6v3.8zm0 4.1V97h2c1.8 0 2.6-.7 2.6-2.2 0-.7-.2-1.2-.7-1.6-.5-.4-1.2-.6-2.1-.6h-1.8zm23.3-7.8c-1.3 0-2.4.5-3.1 1.7-.8 1.1-1.1 2.6-1.1 4.6 0 4 1.5 6 4.6 6 .9 0 1.8-.1 2.7-.4.9-.3 1.7-.6 2.6-.9v4.8c-1.7.8-3.7 1.2-5.9 1.2-3.2 0-5.6-.9-7.3-2.7-1.7-1.8-2.5-4.5-2.5-7.9 0-2.2.4-4.1 1.2-5.7.8-1.6 2-2.9 3.5-3.8 1.5-.9 3.3-1.3 5.4-1.3 2.3 0 4.4.5 6.5 1.5L78 86.3c-.8-.4-1.5-.7-2.3-.9-.9-.5-1.7-.6-2.6-.6z"/></svg>