<svg id="レイヤー_1" xmlns="http://www.w3.org/2000/svg" xmlns:xlink="http://www.w3.org/1999/xlink" viewBox="0 0 300 300"><style>.st0,.st1{fill:none}.st1{stroke:#333;stroke-width:1.44}.st2{fill:url(#SVGID_1_)}.st3{fill:#fff}.st4{fill:#fae03c}.st5{fill:#333}.st6{fill:#fae03c;stroke:#333;stroke-width:3;stroke-miterlimit:10}.st7{fill:url(#SVGID_2_)}.st8{fill:none;stroke:#333;stroke-width:3;stroke-miterlimit:10}.st9{fill:url(#SVGID_3_)}.st10{clip-path:url(#SVGID_5_);fill:#333}.st11{fill:url(#SVGID_6_)}.st12{fill:url(#SVGID_7_)}.st13{fill:url(#SVGID_8_)}.st14{fill:url(#SVGID_9_)}.st15{fill:url(#SVGID_10_)}.st16{fill:url(#SVGID_11_)}.st17{fill:url(#SVGID_12_)}.st18{fill:url(#SVGID_13_)}.st19,.st20{clip-path:url(#SVGID_15_);fill:#333}.st20{clip-path:url(#SVGID_17_)}</style><pattern x="-320" y="-1000" width="72" height="72" patternUnits="userSpaceOnUse" id="_x31_0_lpi_20_x25__2" viewBox="72.2 -72 72 72" overflow="visible"><path class="st0" d="M72.2-72h72V0h-72z"/><path class="st1" d="M144-3.6h72.5M144-18h72.5M144-32.4h72.5M144-46.8h72.5M144-61.2h72.5M144-10.8h72.5M144-25.2h72.5M144-39.6h72.5M144-54h72.5M144-68.4h72.5"/><g><path class="st1" d="M72-3.6h72.5M72-18h72.5M72-32.4h72.5M72-46.8h72.5M72-61.2h72.5M72-10.8h72.5M72-25.2h72.5M72-39.6h72.5M72-54h72.5M72-68.4h72.5"/></g><g><path class="st1" d="M0-3.6h72.5M0-18h72.5M0-32.4h72.5M0-46.8h72.5M0-61.2h72.5M0-10.8h72.5M0-25.2h72.5M0-39.6h72.5M0-54h72.5M0-68.4h72.5"/></g></pattern><g id="レイヤー_2"><pattern id="SVGID_1_" xlink:href="#_x31_0_lpi_20_x25__2" patternTransform="scale(.5) rotate(-45 -17072.78 688.638)"/><circle class="st2" cx="150" cy="150" r="150"/><circle class="st3" cx="150" cy="150" r="135"/><path class="st5" d="M162 137.6h9c0-9.4-6.1-15.4-16.5-16.7v-6.4h-9v6.4c-10.4 1.3-16.5 7.4-16.5 16.7 0 9.4 6.1 15.4 16.5 16.7v16c-7.5-1.3-7.5-6-7.5-7.7h-9c0 9.4 6.1 15.4 16.5 16.7v6.4h9v-6.4c10.4-1.3 16.5-7.4 16.5-16.7s-6.1-15.4-16.5-16.7v-16c7.5 1.4 7.5 6 7.5 7.7zm-24 0c0-1.7 0-6.4 7.5-7.7v15.3c-7.5-1.2-7.5-5.9-7.5-7.6zm24 25c0 1.7 0 6.4-7.5 7.7V155c7.5 1.3 7.5 5.9 7.5 7.6z"/><path class="st5" d="M108 134.8l-6.3-6.3-5.7 5.7V119c0-12.8 10.4-23.2 23.2-23.2h61.9c12.8 0 23.2 10.4 23.2 23.2v23h9v-23c0-17.7-14.4-32.1-32.1-32.1h-61.9c-17.7 0-32.1 14.4-32.1 32.1v15.2l-5.7-5.7-6.3 6.3 16.6 16.6 16.2-16.6zM225.1 167.6L208.5 151 192 167.6l6.3 6.3 5.7-5.7v12.7c0 12.8-10.4 23.2-23.2 23.2h-61.9c-12.8 0-23.2-10.4-23.2-23.2v-20.5h-9v20.5c0 17.7 14.4 32.1 32.1 32.1h61.9c17.7 0 32.1-14.4 32.1-32.1v-12.7l5.7 5.7 6.6-6.3z"/></g></svg>