<svg id="レイヤー_1" xmlns="http://www.w3.org/2000/svg" xmlns:xlink="http://www.w3.org/1999/xlink" viewBox="0 0 300 300"><style>.st0,.st1{fill:none}.st1{stroke:#333;stroke-width:1.44}.st2{fill:url(#SVGID_1_)}.st3{fill:#fff}.st4{fill:#fae03c}.st5{fill:#333}.st6{fill:#fae03c;stroke:#333;stroke-width:3;stroke-miterlimit:10}.st7{fill:url(#SVGID_2_)}.st8{fill:none;stroke:#333;stroke-width:3;stroke-miterlimit:10}.st9{fill:url(#SVGID_3_)}.st10{clip-path:url(#SVGID_5_);fill:#333}.st11{fill:url(#SVGID_6_)}.st12{fill:url(#SVGID_7_)}.st13{fill:url(#SVGID_8_)}.st14{fill:url(#SVGID_9_)}.st15{fill:url(#SVGID_10_)}.st16{fill:url(#SVGID_11_)}.st17{fill:url(#SVGID_12_)}.st18{fill:url(#SVGID_13_)}.st19,.st20{clip-path:url(#SVGID_15_);fill:#333}.st20{clip-path:url(#SVGID_17_)}</style><pattern y="-668" width="72" height="72" patternUnits="userSpaceOnUse" id="_x31_0_lpi_20_x25__2" viewBox="72.2 -72 72 72" overflow="visible"><path class="st0" d="M72.2-72h72V0h-72z"/><path class="st1" d="M144-3.6h72.5M144-18h72.5M144-32.4h72.5M144-46.8h72.5M144-61.2h72.5M144-10.8h72.5M144-25.2h72.5M144-39.6h72.5M144-54h72.5M144-68.4h72.5"/><g><path class="st1" d="M72-3.6h72.5M72-18h72.5M72-32.4h72.5M72-46.8h72.5M72-61.2h72.5M72-10.8h72.5M72-25.2h72.5M72-39.6h72.5M72-54h72.5M72-68.4h72.5"/></g><g><path class="st1" d="M0-3.6h72.5M0-18h72.5M0-32.4h72.5M0-46.8h72.5M0-61.2h72.5M0-10.8h72.5M0-25.2h72.5M0-39.6h72.5M0-54h72.5M0-68.4h72.5"/></g></pattern><g id="レイヤー_2"><pattern id="SVGID_1_" xlink:href="#_x31_0_lpi_20_x25__2" patternTransform="scale(.5) rotate(-45 -18337.422 1322.847)"/><circle class="st2" cx="150" cy="150" r="150"/><circle class="st3" cx="150" cy="150" r="135"/><path class="st5" d="M215.4 91.9H84.6c-5.3 0-9.7 4.3-9.7 9.7v87.1c0 5.3 4.3 9.7 9.7 9.7h43.6v12.1h-16.9v4.8h77.5v-4.8h-16.9v-12.1h43.6c5.3 0 9.7-4.3 9.7-9.7v-87.1c-.2-5.3-4.5-9.7-9.8-9.7zm-48.5 118.6H133v-12.1h33.9v12.1zm53.3-21.8c0 2.7-2.2 4.8-4.8 4.8H84.6c-2.7 0-4.8-2.2-4.8-4.8v-87.1c0-2.7 2.2-4.8 4.8-4.8h130.7c2.7 0 4.8 2.2 4.8 4.8v87.1zm0 0"/><path class="st5" d="M84.6 188.7h130.7v-87.1H84.6v87.1zm4.9-82.3h121v77.5h-121v-77.5zm0 0"/><path class="st5" d="M99.2 113.7c0 1.3-1.1 2.4-2.4 2.4-1.3 0-2.4-1.1-2.4-2.4 0-1.3 1.1-2.4 2.4-2.4 1.3 0 2.4 1.1 2.4 2.4zm0 0M106.4 113.7c0 1.3-1.1 2.4-2.4 2.4-1.3 0-2.4-1.1-2.4-2.4 0-1.3 1.1-2.4 2.4-2.4 1.3 0 2.4 1.1 2.4 2.4zm0 0M113.7 113.7c0 1.3-1.1 2.4-2.4 2.4-1.3 0-2.4-1.1-2.4-2.4 0-1.3 1.1-2.4 2.4-2.4 1.3 0 2.4 1.1 2.4 2.4zm0 0M94.3 150h33.9v-29H94.3v29zm4.9-24.2h24.2v19.4H99.2v-19.4zm0 0M133.1 150H167v-29h-33.9v29zm4.8-24.2h24.2v19.4h-24.2v-19.4zm0 0M171.8 150h33.9v-29h-33.9v29zm4.8-24.2h24.2v19.4h-24.2v-19.4zm0 0M94.3 154.8h72.6v4.8H94.3zM94.3 164.5h72.6v4.8H94.3zM94.3 174.2h72.6v4.8H94.3zM174.2 154.8h31.5v4.8h-31.5zM174.2 164.5h31.5v4.8h-31.5zM174.2 174.2h31.5v4.8h-31.5z"/></g></svg>