<svg id="レイヤー_1" xmlns="http://www.w3.org/2000/svg" xmlns:xlink="http://www.w3.org/1999/xlink" viewBox="0 0 300 300"><style>.st0,.st1{fill:none}.st1{stroke:#333;stroke-width:1.44}.st2{fill:url(#SVGID_1_)}.st3{fill:#fff}.st4{fill:#fae03c}.st5{fill:#333}.st6{fill:#fae03c;stroke:#333;stroke-width:3;stroke-miterlimit:10}.st7{fill:url(#SVGID_2_)}.st8{fill:none;stroke:#333;stroke-width:3;stroke-miterlimit:10}.st9{fill:url(#SVGID_3_)}.st10{clip-path:url(#SVGID_5_);fill:#333}.st11{fill:url(#SVGID_6_)}.st12{fill:url(#SVGID_7_)}.st13{fill:url(#SVGID_8_)}.st14{fill:url(#SVGID_9_)}.st15{fill:url(#SVGID_10_)}.st16{fill:url(#SVGID_11_)}.st17{fill:url(#SVGID_12_)}.st18{fill:url(#SVGID_13_)}.st19,.st20{clip-path:url(#SVGID_15_);fill:#333}.st20{clip-path:url(#SVGID_17_)}</style><pattern x="-320" y="-335" width="72" height="72" patternUnits="userSpaceOnUse" id="_x31_0_lpi_20_x25__2" viewBox="72.2 -72 72 72" overflow="visible"><path class="st0" d="M72.2-72h72V0h-72z"/><path class="st1" d="M144-3.6h72.5M144-18h72.5M144-32.4h72.5M144-46.8h72.5M144-61.2h72.5M144-10.8h72.5M144-25.2h72.5M144-39.6h72.5M144-54h72.5M144-68.4h72.5"/><g><path class="st1" d="M72-3.6h72.5M72-18h72.5M72-32.4h72.5M72-46.8h72.5M72-61.2h72.5M72-10.8h72.5M72-25.2h72.5M72-39.6h72.5M72-54h72.5M72-68.4h72.5"/></g><g><path class="st1" d="M0-3.6h72.5M0-18h72.5M0-32.4h72.5M0-46.8h72.5M0-61.2h72.5M0-10.8h72.5M0-25.2h72.5M0-39.6h72.5M0-54h72.5M0-68.4h72.5"/></g></pattern><g id="レイヤー_2"><pattern id="SVGID_1_" xlink:href="#_x31_0_lpi_20_x25__2" patternTransform="scale(.5) rotate(-45 -19480.64 -973.642)"/><circle class="st2" cx="150" cy="150" r="150"/><circle class="st3" cx="150" cy="150" r="135"/><path class="st5" d="M150.1 223.1c41.3-.1 74.7-33.7 74.7-75.1 0-40.8-33.3-74.3-73-75-41.7-.7-76.6 33.1-76.6 74.2 0 42.3 33.2 76 74.9 75.9zM150 76.7c39.6 0 71.2 32.2 71.2 72.6 0 38.2-32.4 70.1-71.2 70.1-39.5 0-71.2-32-71.2-71.8 0-38.8 32.2-70.9 71.2-70.9zm-29.9 37.6c.6 2.2-1.2 2.9-3.1 3.1-2 .2-4.1.3-6.4.5 7.8 23.2 15.4 46 23.3 69.4.6-.9.8-1.2.9-1.5 4.3-12.9 8.6-25.7 12.8-38.6.4-1.2.2-2.7-.2-3.9-2.2-6.4-4.9-12.7-6.8-19.2-1.3-4.4-3.1-7.3-8.3-6.8-.9.1-2-1.8-3-2.8 1.2-.7 2.4-2.1 3.6-2.1 10.7-.2 21.4-.2 32.1 0 1.2 0 2.4 1.4 3.6 2.1-1.1 1-2 2.4-3.2 2.8-2 .6-4.2.5-6.6.7 7.8 23.2 15.4 45.8 23.3 69.3 3.5-11.7 6.8-22.5 10-33.3 2.9-9.6 1.2-18.6-4-27.1-1.5-2.6-3.5-5-4.3-7.8-1-3.2-1.8-6.8-1.3-9.9.9-5.4 5-8.1 10.6-8.6-30.6-28.4-78.7-18.2-96.4 12.6 6.8-.3 13.3-.7 19.8-.8 1.2-.1 3.3 1 3.6 1.9zm12.2 94c-.1.4-.2.9-.3 1.6 13.2 3.7 26.1 3.4 39.3-1.1l-20.2-55.4c-6.4 18.8-12.6 36.8-18.8 54.9zm-10.2-2.5l-30.5-83.5c-13.7 26.7-3.3 67.7 30.5 83.5zm92-53.7c1-12.7-3.4-30.3-7.2-32.7-.4 4.7-.1 9.9-1.5 14.6-3.2 11.1-7 22.1-10.7 33.1-4 11.9-8.2 23.8-12.4 35.7 19.5-11.5 30.1-28.4 31.8-50.7z"/></g></svg>