<svg id="レイヤー_1" xmlns="http://www.w3.org/2000/svg" xmlns:xlink="http://www.w3.org/1999/xlink" viewBox="0 0 300 300"><style>.st0,.st1{fill:none}.st1{stroke:#333;stroke-width:1.44}.st2{fill:url(#SVGID_1_)}.st3{fill:#fff}.st4{fill:#fae03c}.st5{fill:#333}.st6{fill:#fae03c;stroke:#333;stroke-width:3;stroke-miterlimit:10}.st7{fill:url(#SVGID_2_)}.st8{fill:none;stroke:#333;stroke-width:3;stroke-miterlimit:10}.st9{fill:url(#SVGID_3_)}.st10{clip-path:url(#SVGID_5_);fill:#333}.st11{fill:url(#SVGID_6_)}.st12{fill:url(#SVGID_7_)}.st13{fill:url(#SVGID_8_)}.st14{fill:url(#SVGID_9_)}.st15{fill:url(#SVGID_10_)}.st16{fill:url(#SVGID_11_)}.st17{fill:url(#SVGID_12_)}.st18{fill:url(#SVGID_13_)}.st19,.st20{clip-path:url(#SVGID_15_);fill:#333}.st20{clip-path:url(#SVGID_17_)}</style><pattern y="-335" width="72" height="72" patternUnits="userSpaceOnUse" id="_x31_0_lpi_20_x25__2" viewBox="72.2 -72 72 72" overflow="visible"><path class="st0" d="M72.2-72h72V0h-72z"/><path class="st1" d="M144-3.6h72.5M144-18h72.5M144-32.4h72.5M144-46.8h72.5M144-61.2h72.5M144-10.8h72.5M144-25.2h72.5M144-39.6h72.5M144-54h72.5M144-68.4h72.5"/><g><path class="st1" d="M72-3.6h72.5M72-18h72.5M72-32.4h72.5M72-46.8h72.5M72-61.2h72.5M72-10.8h72.5M72-25.2h72.5M72-39.6h72.5M72-54h72.5M72-68.4h72.5"/></g><g><path class="st1" d="M0-3.6h72.5M0-18h72.5M0-32.4h72.5M0-46.8h72.5M0-61.2h72.5M0-10.8h72.5M0-25.2h72.5M0-39.6h72.5M0-54h72.5M0-68.4h72.5"/></g></pattern><g id="レイヤー_2"><pattern id="SVGID_1_" xlink:href="#_x31_0_lpi_20_x25__2" patternTransform="scale(.5) rotate(-45 -19975.106 -552.345)"/><circle class="st2" cx="150" cy="150" r="150"/><circle class="st3" cx="150" cy="150" r="135"/><path class="st5" d="M131.9 180.3c-21.2 5.9 12.9 18.2 40 6.6-4.4-1.7-7.6-3.7-7.6-3.7-12.1 2.3-17.7 2.5-28.6 1.2-9.1-1-3.8-4.1-3.8-4.1zm36.7-11.6c-16 3.1-25.2 3-36.9 1.8-9-.9-3.1-5.3-3.1-5.3-23.4 7.8 13 16.6 45.7 7-3.5-1.2-5.7-3.5-5.7-3.5zm12.5-67s-47.3 11.8-24.7 37.8c6.7 7.7-1.7 14.6-1.7 14.6s16.9-8.7 9.1-19.7c-7.2-10.2-12.8-15.2 17.3-32.7zm11.1 89.8s3.9 3.2-4.3 5.7c-15.6 4.7-65 6.2-78.7.2-4.9-2.1 4.3-5.1 7.2-5.7 3-.7 4.8-.5 4.8-.5-5.5-3.9-35.4 7.6-15.2 10.9 55.1 8.8 100.5-4.1 86.2-10.6zm-19-33.6c2.7-1.8 6.3-3.4 6.3-3.4s-10.4 1.9-20.8 2.7c-12.7 1.1-26.4 1.3-33.2.4-16.2-2.2 8.9-8.1 8.9-8.1s-9.8-.7-21.7 5.1c-14.2 6.9 35 10 60.5 3.3zm6.2 16.8c-.1.3-.5.7-.5.7 34.6-9.1 21.9-32.1 5.3-26.3-1.5.5-2.2 1.7-2.2 1.7s.9-.4 3-.8c8.4-1.7 20.4 11.2-5.6 24.7zm-29.2-25.4c-5.1-11.5-22.4-21.6 0-39.3 28-22.1 13.6-36.4 13.6-36.4 5.8 22.8-20.4 29.7-29.9 43.9-6.4 9.6 3.2 20 16.3 31.8zm30.2 57.2c-21.2 4-47.4 3.5-62.9 1 0 0 3.2 2.6 19.5 3.7 24.9 1.6 63.1-.9 64-12.7-.1 0-1.8 4.5-20.6 8z"/></g></svg>