<svg id="レイヤー_1" xmlns="http://www.w3.org/2000/svg" xmlns:xlink="http://www.w3.org/1999/xlink" viewBox="0 0 300 300"><style>.st0,.st1{fill:none}.st1{stroke:#333;stroke-width:1.44}.st2{fill:url(#SVGID_1_)}.st3{fill:#fff}.st4{fill:#fae03c}.st5{fill:#333}.st6{fill:#fae03c;stroke:#333;stroke-width:3;stroke-miterlimit:10}.st7{fill:url(#SVGID_2_)}.st8{fill:none;stroke:#333;stroke-width:3;stroke-miterlimit:10}.st9{fill:url(#SVGID_3_)}.st10{clip-path:url(#SVGID_5_);fill:#333}.st11{fill:url(#SVGID_6_)}.st12{fill:url(#SVGID_7_)}.st13{fill:url(#SVGID_8_)}.st14{fill:url(#SVGID_9_)}.st15{fill:url(#SVGID_10_)}.st16{fill:url(#SVGID_11_)}.st17{fill:url(#SVGID_12_)}.st18{fill:url(#SVGID_13_)}.st19,.st20{clip-path:url(#SVGID_15_);fill:#333}.st20{clip-path:url(#SVGID_17_)}</style><pattern y="-1000" width="72" height="72" patternUnits="userSpaceOnUse" id="_x31_0_lpi_20_x25__2" viewBox="72.2 -72 72 72" overflow="visible"><path class="st0" d="M72.2-72h72V0h-72z"/><path class="st1" d="M144-3.6h72.5M144-18h72.5M144-32.4h72.5M144-46.8h72.5M144-61.2h72.5M144-10.8h72.5M144-25.2h72.5M144-39.6h72.5M144-54h72.5M144-68.4h72.5"/><g><path class="st1" d="M72-3.6h72.5M72-18h72.5M72-32.4h72.5M72-46.8h72.5M72-61.2h72.5M72-10.8h72.5M72-25.2h72.5M72-39.6h72.5M72-54h72.5M72-68.4h72.5"/></g><g><path class="st1" d="M0-3.6h72.5M0-18h72.5M0-32.4h72.5M0-46.8h72.5M0-61.2h72.5M0-10.8h72.5M0-25.2h72.5M0-39.6h72.5M0-54h72.5M0-68.4h72.5"/></g></pattern><g id="レイヤー_2"><pattern id="SVGID_1_" xlink:href="#_x31_0_lpi_20_x25__2" patternTransform="scale(.5) rotate(-45 -17567.246 1109.935)"/><circle class="st2" cx="150" cy="150" r="150"/><circle class="st3" cx="152.9" cy="150" r="135"/><path class="st5" d="M202.3 146.2c0 1.5-1.2 2.7-2.7 2.7-1.5 0-2.7-1.2-2.7-2.7 0-1.5 1.2-2.7 2.7-2.7 1.4 0 2.7 1.2 2.7 2.7zm0 0M103.8 146.2c0 1.5-1.2 2.7-2.7 2.7-1.5 0-2.7-1.2-2.7-2.7 0-1.5 1.2-2.7 2.7-2.7 1.4 0 2.7 1.2 2.7 2.7zm0 0M112 154.4c0 1.5-1.2 2.7-2.7 2.7-1.5 0-2.7-1.2-2.7-2.7 0-1.5 1.2-2.7 2.7-2.7 1.4 0 2.7 1.2 2.7 2.7zm0 0M128.4 154.4c0 1.5-1.2 2.7-2.7 2.7-1.5 0-2.7-1.2-2.7-2.7 0-1.5 1.2-2.7 2.7-2.7 1.5 0 2.7 1.2 2.7 2.7zm0 0M120.2 162.6c0 1.5-1.2 2.7-2.7 2.7-1.5 0-2.7-1.2-2.7-2.7 0-1.5 1.2-2.7 2.7-2.7 1.4 0 2.7 1.2 2.7 2.7zm0 0M136.6 162.6c0 1.5-1.2 2.7-2.7 2.7-1.5 0-2.7-1.2-2.7-2.7 0-1.5 1.2-2.7 2.7-2.7 1.5 0 2.7 1.2 2.7 2.7zm0 0M144.8 170.8c0 1.5-1.2 2.7-2.7 2.7-1.5 0-2.7-1.2-2.7-2.7 0-1.5 1.2-2.7 2.7-2.7 1.5 0 2.7 1.2 2.7 2.7zm0 0M161.2 170.8c0 1.5-1.2 2.7-2.7 2.7-1.5 0-2.7-1.2-2.7-2.7 0-1.5 1.2-2.7 2.7-2.7 1.5 0 2.7 1.2 2.7 2.7zm0 0M169.4 162.6c0 1.5-1.2 2.7-2.7 2.7-1.5 0-2.7-1.2-2.7-2.7 0-1.5 1.2-2.7 2.7-2.7 1.5 0 2.7 1.2 2.7 2.7zm0 0M153 179c0 1.5-1.2 2.7-2.7 2.7-1.5 0-2.7-1.2-2.7-2.7s1.2-2.7 2.7-2.7c1.5 0 2.7 1.2 2.7 2.7zm0 0M177.6 154.4c0 1.5-1.2 2.7-2.7 2.7-1.5 0-2.7-1.2-2.7-2.7 0-1.5 1.2-2.7 2.7-2.7 1.5 0 2.7 1.2 2.7 2.7zm0 0M194 154.4c0 1.5-1.2 2.7-2.7 2.7-1.5 0-2.7-1.2-2.7-2.7 0-1.5 1.2-2.7 2.7-2.7 1.5 0 2.7 1.2 2.7 2.7zm0 0"/><defs><path id="SVGID_16_" d="M76.3 76.3h150.2v150.2H76.3z"/></defs><clipPath id="SVGID_2_"><use xlink:href="#SVGID_16_" overflow="visible"/></clipPath><path d="M185.8 162.6c0 1.5-1.2 2.7-2.7 2.7-1.5 0-2.7-1.2-2.7-2.7 0-1.5 1.2-2.7 2.7-2.7 1.5 0 2.7 1.2 2.7 2.7zm0 0" clip-path="url(#SVGID_2_)" fill="#333"/><path d="M201 164.9l25.7-14.7-26.4-15 26.4-15.1-75.2-42.7-75.2 42.7 26.4 15.1-26.4 15 26.4 15.1-26.4 15 75.2 43 75.2-43-26.4-15 .2-.1c.2-.1.3-.2.5-.3zm-49.5-81.2l64.1 36.4-20.9 11.9-43.2 24.7-64.1-36.6 64.1-36.4zm-44.7 55.5c.4.9 1.4 1.5 2.4 1.5.7 0 1.4-.3 1.9-.8l6.2 3.5c-1.5.1-2.6 1.2-2.6 2.7 0 1.5 1.2 2.7 2.7 2.7 1.5 0 2.7-1.2 2.7-2.7 0-.5-.1-.9-.4-1.3l28.3 16.1c-.3.5-.6 1-.6 1.6 0 1.5 1.2 2.7 2.7 2.7 1.5 0 2.7-1.2 2.7-2.7 0-.1-.1-.3-.1-.4l27.5-15.7c.2 1.4 1.3 2.4 2.7 2.4 1.5 0 2.7-1.2 2.7-2.7 0-.9-.4-1.7-1.1-2.2l6-3.4c.2 0 .4.1.6.1 1.2 0 2.2-.8 2.6-1.9l.9-.5 20.9 11.9-5.4 3.1c-.4-1-1.4-1.6-2.5-1.6-1.5 0-2.7 1.2-2.7 2.7 0 .6.2 1.1.5 1.5l-10.8 6.2-17.5 10c.2-.4.4-.8.4-1.3 0-1.5-1.2-2.7-2.7-2.7-1.5 0-2.7 1.2-2.7 2.7 0 1.5 1.2 2.6 2.6 2.7l-6.2 3.5c-.5-.5-1.2-.8-1.9-.8-1.5 0-2.7 1.2-2.7 2.7 0 .2.1.4.1.6l-12.6 7.2-15.1-8.6c-.4-1.1-1.4-1.9-2.6-1.9-.2 0-.4.1-.6.1l-6-3.4c.7-.5 1.1-1.2 1.1-2.1 0-1.5-1.2-2.7-2.7-2.7-1.4 0-2.5 1.1-2.7 2.4l-27.5-15.7c0-.1.1-.3.1-.4 0-1.5-1.2-2.7-2.7-2.7-.7 0-1.2.3-1.7.6l-3.7-2.1 19.5-10.9zm108.8 41.1l-64.1 36.6-64.1-36.6 20.9-11.9 43.2 24.7 43.2-24.7 20.9 11.9zm0 0" clip-path="url(#SVGID_2_)" fill="#333"/></g></svg>