<svg id="レイヤー_1" xmlns="http://www.w3.org/2000/svg" xmlns:xlink="http://www.w3.org/1999/xlink" viewBox="0 0 300 300"><style>.st0,.st1{fill:none}.st1{stroke:#333;stroke-width:1.44}.st2{fill:url(#SVGID_1_)}.st3{fill:#fff}.st4{fill:#fae03c}.st5{fill:#333}.st6{fill:#fae03c;stroke:#333;stroke-width:3;stroke-miterlimit:10}.st7{fill:url(#SVGID_2_)}.st8{fill:none;stroke:#333;stroke-width:3;stroke-miterlimit:10}.st9{fill:url(#SVGID_3_)}.st10{clip-path:url(#SVGID_5_);fill:#333}.st11{fill:url(#SVGID_6_)}.st12{fill:url(#SVGID_7_)}.st13{fill:url(#SVGID_8_)}.st14{fill:url(#SVGID_9_)}.st15{fill:url(#SVGID_10_)}.st16{fill:url(#SVGID_11_)}.st17{fill:url(#SVGID_12_)}.st18{fill:url(#SVGID_13_)}.st19,.st20{clip-path:url(#SVGID_15_);fill:#333}.st20{clip-path:url(#SVGID_17_)}</style><pattern x="-640" y="-668" width="72" height="72" patternUnits="userSpaceOnUse" id="_x31_0_lpi_20_x25__2" viewBox="72.2 -72 72 72" overflow="visible"><path class="st0" d="M72.2-72h72V0h-72z"/><path class="st1" d="M144-3.6h72.5M144-18h72.5M144-32.4h72.5M144-46.8h72.5M144-61.2h72.5M144-10.8h72.5M144-25.2h72.5M144-39.6h72.5M144-54h72.5M144-68.4h72.5"/><g><path class="st1" d="M72-3.6h72.5M72-18h72.5M72-32.4h72.5M72-46.8h72.5M72-61.2h72.5M72-10.8h72.5M72-25.2h72.5M72-39.6h72.5M72-54h72.5M72-68.4h72.5"/></g><g><path class="st1" d="M0-3.6h72.5M0-18h72.5M0-32.4h72.5M0-46.8h72.5M0-61.2h72.5M0-10.8h72.5M0-25.2h72.5M0-39.6h72.5M0-54h72.5M0-68.4h72.5"/></g></pattern><g id="レイヤー_2"><pattern id="SVGID_1_" xlink:href="#_x31_0_lpi_20_x25__2" patternTransform="scale(.5) rotate(-45 -17780.435 -562.549)"/><circle class="st2" cx="150" cy="150" r="150"/><circle class="st3" cx="150" cy="150" r="135"/><defs><path id="SVGID_14_" d="M74.1 98H226v134.4H74.1z"/></defs><clipPath id="SVGID_2_"><use xlink:href="#SVGID_14_" overflow="visible"/></clipPath><path d="M192.1 122.7c3.1 0 6.1-.8 8.8-2.4l25.2-14.9v-7l-28.3 16.5c-2.2 1.2-4.6 1.9-7 1.9l-37.5-.4c-1.9-.7-3.4-1.1-3.9-1.3-11.7-2.6-20.9-1.6-27.1.1-4.7 1.2-9.7.8-14.1-1.2l-34-15.6v62.3l3.5 1.9c5.2 2.8 9.4 7.2 11.9 12.6l-2 1.6c-5.4 3.9-6.5 11.4-3 16.8 2 2.6 4.7 4.2 7.9 4.8.4 0 .9.1 1.3.1 1.2.1 2.3-.1 3.2-.2.1 2.7.7 5 2.3 7.2 2.1 3 5.5 4.3 9.1 4.5.9.1 1.9.1 2.6.2-.3 2.8.5 5.7 2.2 8.1 2 2.6 4.7 4.2 7.9 4.8.4 0 .9.1 1.3.1 2.8.2 5.5-.7 7.7-2.2l1.2-.9c.3 1.7.8 3.3 1.8 4.7 1.6 2.2 4 3.6 6.8 4.2.4 0 .7 0 1.2.1 2.3.1 4.6-.5 6.6-1.9h.2l1.4 2c2.5 3.6 7.6 4.4 11.1 1.9 3-2.1 4.1-6.3 2.8-9.6l.2.4c2.3 3.5 6.8 5 10.6 3.4 4.3-1.7 6-6.4 4.9-10.3 2.9 3.2 7.8 3.8 11.3 1.4l.2-.2c3.6-2.5 4.6-7.2 2.7-10.9 3.1 2.8 8 3.3 11.6.8 4.1-3 5.2-8.9 2.2-13l-4.4-6.3 9.6-11.2c2.5-3 5.5-5.5 8.9-7.4l4.7-2.7v-7.4l-6.5 3.7c-3.7 2.1-7.1 4.9-9.9 8.1l-10.3 12c-3.1-2.8-8-3.3-11.6-.8-4.1 3-5.2 8.9-2.2 13l.2.4h-.2c-2.9-2.1-6.9-2.3-10.1-.2l-.2.2c-2.8 1.9-4.1 5.3-3.5 8.6l-1 .7c-2.8-1.5-6.2-1.5-9 .5-2.6 1.8-3.9 4.9-3.6 7.8l-2.7 1.7c-2.1-.5-4.4 0-6.1 1.2-2.2 1.6-3.5 4.2-3.4 6.7l-1.4.9c-.8.7-2.2 1-3.3.8-1.1-.2-2.2-.9-3-1.9-.7-.8-1-2.2-.8-3.3.2-1.1.9-2.2 1.9-3l14.9-11.2c.8-.5 1.2-1.3 1.2-2.2.1-1.7-1.4-3.2-3.1-3.2-.7 0-1.2.2-1.7.5l-23.7 17.2c-1.4.9-2.9 1.4-4.6 1.1-1.7-.3-3.2-1.1-4.1-2.5-2-2.6-1.4-6.5 1.4-8.5l28.3-20.2c.6-.6 1.1-1.3 1.1-2.4 0-1.6-1.3-3-2.9-3.1-.9 0-1.7.3-2.3 1l-27.7 20c-.8.3-1.2.9-1.8 1.4-3.3 2.1-8.3 1.7-10-.7-1.8-2.6-1.4-6 .8-8.1l2.8-1.9 30.8-21c.8-.5 1.2-1.3 1.2-2.2.1-1-.4-2-1.3-2.6-1.1-.8-2.2-.8-3.3-.1l-33 22.4c-.2.4-.6.5-.8.7l-3.2 2.3c-2.6 2-6.5 1.4-8.5-1.4-2-2.6-1.4-6.5 1.4-8.5l62.2-45.8c5 2.9 8.7 8.8 8.7 8.8 6.1 19.1 13.7 19.3 18.3 17 2.4-1.2 3.5-4 2.6-6.6-2.4-7.4-3.8-21.7-3.8-21.7-1.7-3.7-7.2-7.6-13.3-10.8l20 .3 6.5-.5zm0 0" clip-path="url(#SVGID_2_)" fill="#333"/></g></svg>