<svg id="レイヤー_1" xmlns="http://www.w3.org/2000/svg" xmlns:xlink="http://www.w3.org/1999/xlink" viewBox="0 0 300 300"><style>.st0,.st1{fill:none}.st1{stroke:#333;stroke-width:1.44}.st2{fill:url(#SVGID_1_)}.st3{fill:#fff}.st4{fill:#fae03c}.st5{fill:#333}.st6{fill:#fae03c;stroke:#333;stroke-width:3;stroke-miterlimit:10}.st7{fill:url(#SVGID_2_)}.st8{fill:none;stroke:#333;stroke-width:3;stroke-miterlimit:10}.st9{fill:url(#SVGID_3_)}.st10{clip-path:url(#SVGID_5_);fill:#333}.st11{fill:url(#SVGID_6_)}.st12{fill:url(#SVGID_7_)}.st13{fill:url(#SVGID_8_)}.st14{fill:url(#SVGID_9_)}.st15{fill:url(#SVGID_10_)}.st16{fill:url(#SVGID_11_)}.st17{fill:url(#SVGID_12_)}.st18{fill:url(#SVGID_13_)}.st19,.st20{clip-path:url(#SVGID_15_);fill:#333}.st20{clip-path:url(#SVGID_17_)}</style><pattern x="-320" y="-668" width="72" height="72" patternUnits="userSpaceOnUse" id="_x31_0_lpi_20_x25__2" viewBox="72.2 -72 72 72" overflow="visible"><path class="st0" d="M72.2-72h72V0h-72z"/><path class="st1" d="M144-3.6h72.5M144-18h72.5M144-32.4h72.5M144-46.8h72.5M144-61.2h72.5M144-10.8h72.5M144-25.2h72.5M144-39.6h72.5M144-54h72.5M144-68.4h72.5"/><g><path class="st1" d="M72-3.6h72.5M72-18h72.5M72-32.4h72.5M72-46.8h72.5M72-61.2h72.5M72-10.8h72.5M72-25.2h72.5M72-39.6h72.5M72-54h72.5M72-68.4h72.5"/></g><g><path class="st1" d="M0-3.6h72.5M0-18h72.5M0-32.4h72.5M0-46.8h72.5M0-61.2h72.5M0-10.8h72.5M0-25.2h72.5M0-39.6h72.5M0-54h72.5M0-68.4h72.5"/></g></pattern><g id="レイヤー_2"><pattern id="SVGID_1_" xlink:href="#_x31_0_lpi_20_x25__2" patternTransform="scale(.5) rotate(-45 -18580.33 596.12)"/><circle class="st2" cx="150" cy="150" r="150"/><circle class="st3" cx="150" cy="150" r="135"/><path class="st5" d="M205.5 89.7v53.1h19.3V89.7h-19.3zm14.4 48.2h-9.6V94.5h9.6v43.4zM181.4 114.1c-1.5-1.4-3.2-2.7-4.8-3.9V109h-1.8c-9.4-6.2-20.5-9.6-31.9-9.6h-2.4v60.3h60.3v-2.4c0-4.9-.6-9.7-1.9-14.5h1.9V99.4h-19.3v14.7zm14.4 40.7h-50.6v-50.6c6.8.3 13.5 2 19.6 4.8h-7.5v33.8h19.3v-26.4c1.7 1.4 3.3 2.9 4.8 4.5v21.9h12.4c1.1 3.9 1.8 7.9 2 12zm-24.1-41v24.1h-9.6v-24.1h9.6zm14.5-9.6h9.6V138h-9.6v-33.8z"/><path transform="rotate(-45.001 105.983 160.252)" class="st5" d="M91.5 157.8h29v4.8h-29z"/><path class="st5" d="M104.2 150c0-4-3.2-7.2-7.2-7.2s-7.2 3.2-7.2 7.2 3.2 7.2 7.2 7.2c3.9 0 7.2-3.2 7.2-7.2zm-9.7 0c0-1.3 1.1-2.4 2.4-2.4s2.4 1.1 2.4 2.4c0 1.3-1.1 2.4-2.4 2.4s-2.4-1.1-2.4-2.4zM116.2 162.1c-4 0-7.2 3.2-7.2 7.2s3.2 7.2 7.2 7.2 7.2-3.2 7.2-7.2-3.2-7.2-7.2-7.2zm0 9.6c-1.3 0-2.4-1.1-2.4-2.4s1.1-2.4 2.4-2.4 2.4 1.1 2.4 2.4-1 2.4-2.4 2.4z"/><path class="st5" d="M181 199.3c6.5-9.6 10-20.8 10-32.4v-2.4h-55.5V109h-2.4c-2.4 0-4.8.2-7.2.5V75.2H75.2V109h30.4l4.7 4.7c-21.1 9.1-35.1 30-35.1 53.2 0 31.9 26 57.9 57.9 57.9 14 0 27.3-5.1 37.9-14.2l7.5 7.5c1.5 1.5 3.4 2.2 5.3 2.2s3.9-.7 5.3-2.2c2.9-2.9 2.9-7.7 0-10.6l-8.1-8.2zM80.1 104.2V80.1h41v37.6l-13.5-13.5H80.1zm53 115.7c-29.3 0-53.1-23.8-53.1-53.1 0-21.9 13.6-41.6 34-49.5l11.9 11.9v-14.9c1.6-.2 3.2-.4 4.8-.5v55.4h55.4c-.4 9.5-3.4 18.6-8.6 26.5l-3.8-3.8c.3-1.1.4-2.2.4-3.4 0-8-6.5-14.5-14.5-14.5s-14.5 6.5-14.5 14.5 6.5 14.5 14.5 14.5c1.2 0 2.3-.2 3.4-.4l4.5 4.5c-9.6 8.3-21.7 12.8-34.4 12.8zm26.5-21.7c-5.3 0-9.6-4.3-9.6-9.6s4.3-9.6 9.6-9.6 9.6 4.3 9.6 9.6-4.2 9.6-9.6 9.6zm26.1 16.4c-1.1 1.1-2.8 1.1-3.8 0l-14.1-14.1c1.5-1 2.8-2.3 3.8-3.8l14.1 14.1c1 1.1 1 2.8 0 3.8z"/><path class="st5" d="M84.9 84.9h31.4v4.8H84.9zM84.9 94.5h31.4v4.8H84.9zM157.2 186.2h4.8v4.8h-4.8zM135.5 186.2h4.8v4.8h-4.8zM125.9 186.2h4.8v4.8h-4.8zM116.2 186.2h4.8v4.8h-4.8z"/></g></svg>