<svg id="レイヤー_1" xmlns="http://www.w3.org/2000/svg" viewBox="0 0 288 54.1"><style>.st0{fill:#fff}.st1{fill:#151618}</style><path class="st0" d="M23.7 52.7c-1.3-2.5-2.8-2.8-8.6-2.8H11c-3.1 0-5.8-.9-7.8-2.4C1.1 45.8 0 43.5 0 41V0h48.9v41c0 2.5-1.1 4.8-3.2 6.4-2 1.6-4.8 2.4-7.8 2.4h-4.1c-5.8 0-7.4.3-8.6 2.8l-.8 1.5-.7-1.4z"/><path class="st1" d="M48 .8v40.3c0 4.8-4.3 8.1-10.2 8.1-8.8 0-11.7-.4-13.5 3.2-1.8-3.6-4.6-3.2-13.5-3.2C4.9 49.2.6 45.9.6 41.1V.8H48z"/><path class="st0" d="M24.1 25.2s-6.4-3-4.7-8.6c.9 2.4 2.4 2.6 2.4 2.6s-.5-3.2 2.6-6.3c3.1 4 2.4 6.5 2.4 6.5s1.9-.9 2.1-2.7c1.5 2.7.1 5.3-1.3 6.2-1.4.9-3.5 2.3-3.5 2.3"/><path class="st0" d="M18.5 20s-3.9-3.9.3-8.9c.4 2.2 1.3 2.2 1.8 2.2 0-2.5 3.8-6.2 4-7.3.4 1.7 3.6 4.2 3.8 7.6.4-.1 1.4-.2 1.6-2.2 3.5 6 .4 9 .4 9s.7-3.8-1.8-5.3c0 1.4-.6 1.9-.9 1.9 0-3-3.3-5.5-3.3-6.3 0 .9-3.4 3.4-3.5 6.3-.2-.1-.8-.4-1.3-2.1-2.2 2.1-1.1 5.1-1.1 5.1zM3.3 29.5h6.2v.7H3.3zm35.7 0h6.2v.7H39zm-19.4 4.6c.2 0 8.1-5.5 10.7-7.2.6-.4.9-1 .8-1.8V25c-.2-1.4-1.8-2.1-2.9-1.3l-9.9 6.9c-.7.4-1 1.3-.7 2.1.2.7.8 1.4 2 1.4z"/><path class="st1" d="M30.3 25.4c0 .1 0 .1-.1.2-1 1-2.3 1.8-3.5 2.7-2.1 1.5-4 3.5-6.2 4.9.7-.6 1.4-1.3 2.1-2-1 .4-1.9.9-2.9 1.3.9-.9 1.8-1.8 2.6-2.8-.3.3-.6.3-.9.5-.2.1-.4.3-.6.5-.5.5-1.1.9-1.8 1.3-.2-.3-.5-.5-.7-.8 0 0-.1-.1-.1-.2s0-.1.1-.2c.3-.3.6-.4.9-.6 1.7-.9 3.4-1.8 4.9-2.8 1.6-1 3.1-2.2 4.7-3.2-.3.6-.7 1.1-1.2 1.4.7-.3 1.4-.7 2.1-1.1-.4.5-.9 1.1-1.4 1.5-.7.5-1.4.8-2 1.5 1.2-.5 2.3-1.1 3.2-2.1.1-.1.2-.2.4-.3.2 0 .4.2.4.3z"/><path class="st0" d="M28.9 34.1c-.2 0-8.1-5.5-10.7-7.2-.6-.4-.9-1-.8-1.8V25c.2-1.4 1.8-2.1 2.9-1.3l9.9 6.8c.7.5 1 1.3.7 2.2-.1.7-.7 1.4-2 1.4z"/><path class="st1" d="M18.2 25.4c0 .1 0 .1.1.2 1 1 2.3 1.8 3.5 2.7 2.1 1.5 4 3.5 6.2 4.9-.7-.6-1.4-1.3-2.1-2 1 .4 1.9.9 2.9 1.3-.9-.9-1.8-1.9-2.7-2.8.3.3.6.3.9.5.2.1.4.3.6.5.5.5 1.1.9 1.8 1.3.2-.3.5-.5.7-.8 0 0 .1-.1.1-.2s0-.1-.1-.2c-.3-.3-.6-.4-.9-.6-1.7-.9-3.4-1.8-4.9-2.8s-3.1-2.2-4.7-3.2c.3.6.7 1.1 1.2 1.4-.7-.3-1.4-.7-2.1-1.1.4.5.9 1.1 1.4 1.5.7.5 1.4.8 2 1.5-1.1-.5-2.3-1.1-3.1-2-.1-.1-.2-.2-.4-.3-.2-.1-.4.1-.4.2z"/><path class="st0" d="M17.8 31.8c.1-.1.3-.2.4-.1.1 0 .3.1.4.2.2.2.3.4.3.6-.2-.1-.3-.1-.5-.2 0 .2.1.4.2.7-.1 0-.3 0-.4-.1s-.2-.2-.3-.4c-.1-.1-.1-.2-.2-.4 0 0 0-.2.1-.3zm12.9 0c-.1-.1-.3-.2-.4-.1-.1 0-.3.1-.4.2-.2.2-.3.4-.3.6.2-.1.3-.1.5-.2 0 .2-.1.4-.2.7.1 0 .3 0 .4-.1s.2-.2.3-.4c.1-.1.1-.2.2-.4 0 0 0-.2-.1-.3zm-17.3-2.4c-2.9-2.8-4.7-6.7-4.7-11.1 0-8.5 7-15.5 15.5-15.5s15.5 7 15.5 15.5c0 4.3-1.8 8.3-4.7 11.1h.5c2.8-2.9 4.5-6.8 4.5-11.1 0-8.8-7.2-15.9-15.9-15.9S8.3 9.6 8.3 18.4c0 4.3 1.7 8.2 4.5 11.1h.6v-.1z"/><path class="st0" d="M14.3 29.4h.2c-3.1-2.7-5-6.7-5-11.1 0-8.1 6.6-14.8 14.8-14.8s14.8 6.6 14.8 14.8c0 4.4-1.9 8.4-5 11.1h.2c3-2.7 4.9-6.7 4.9-11.1 0-8.2-6.7-14.9-14.9-14.9s-14.9 6.7-14.9 15c0 4.3 1.8 8.3 4.9 11zm1 16.2v-9.4h2.6v9.4h-2.6zm4.5-9.4h3.3c1.3 0 2.2.2 2.8.6.6.4.9 1 .9 1.8 0 .5-.1 1-.4 1.3-.3.4-.6.6-1.1.7.6.1 1 .4 1.3.8s.4.8.4 1.4c0 .9-.3 1.5-.9 2s-1.5.7-2.6.7h-3.6l-.1-9.3zm2.6 3.6h.8c.4 0 .6-.1.9-.2.2-.1.3-.4.3-.7 0-.5-.4-.8-1.2-.8h-.7c-.1 0-.1 1.7-.1 1.7zm0 1.9v2h.9c.8 0 1.2-.3 1.2-1 0-.3-.1-.5-.3-.7-.2-.2-.5-.3-.9-.3h-.9zm10.5-3.6c-.6 0-1.1.2-1.4.8-.4.5-.5 1.2-.5 2.1 0 1.8.7 2.7 2.1 2.7.4 0 .8 0 1.2-.2.4-.1.8-.3 1.2-.4v2.2c-.8.4-1.7.5-2.7.5-1.4 0-2.5-.4-3.3-1.2s-1.1-2-1.1-3.6c0-1 .2-1.8.5-2.6.4-.7.9-1.3 1.6-1.7s1.5-.6 2.4-.6c1 0 2 .2 2.9.7l-.8 2c-.4-.2-.7-.3-1-.4-.4-.2-.7-.3-1.1-.3zm18.6.6v-25h6.8v25h-6.8zm21.5 0h-6.8V19.3h-6.1v-5.5H79v5.5h-6v19.4zm31.5-29.2c1 1.8 1.9 3.6 2.9 5.7-.1 8.1-2 14.2-5.8 18.3-3.8 4-9.7 6.4-17.6 7.1l-1-5.2c6-.5 10.4-2 13.2-4.5 2.8-2.5 4.5-6.4 5.1-11.7H80.7v-5.3h22c-.4-.7-.8-1.5-1.4-2.6l3.2-1.8zm8.1 4.7l-3.4 1.6c-1.3-2.4-2.2-4.2-2.7-5.2l3.4-1.7c1 2 1.9 3.8 2.7 5.3zM108.5 29v-5.7h29.2V29h-29.2zm31.6-17.5h5.9v9.7c6.3 1.5 12.6 3.4 18.8 5.7l-1.8 5.3c-5.9-2.1-11.6-3.9-17-5.2v13.7h-5.9V11.5zm37.5-.2l5.9-.4.5 5.6 11-.4.2 5.1-10.7.4.5 6.4 11.3-.4.2 5.1-11 .3.7 7.9-5.9.5-.7-8.2-12.2.4-.2-5.1 11.9-.4-.6-6.4-9.7.3-.2-5.1 9.4-.3-.4-5.3zm26 6.3l5.2-.9.9 5 13.3-2.6.9 4.7c-.5 1.9-1.2 3.7-2.3 5.5-1 1.8-2.2 3.4-3.6 4.7l-4-3.1c1.9-2 3.4-4.1 4.3-6.1l-7.8 1.5 2.4 13.6-5.2.9-2.3-13.4-5.9 1.1-.9-4.7 5.9-1.2-.9-5zm21.8-.4l2.7-5.1c3.4 1.5 7 3.3 10.9 5.4l-2.8 5.1c-3.9-2.1-7.5-3.9-10.8-5.4zm23.2-1.7l5.3 1.2c-1.2 7-4.1 12.4-8.5 16.2-4.4 3.7-10.6 6-18.5 6.7l-.9-5.5c6.7-.7 11.8-2.5 15.3-5.4 3.7-2.9 6.1-7.3 7.3-13.2zm28.4 3.6h-20.6v-5.3h21.2c.1-1.4.7-2.5 1.7-3.4 1-.9 2.2-1.4 3.5-1.4 1.4 0 2.7.5 3.7 1.5s1.5 2.3 1.5 3.7-.5 2.6-1.5 3.7c-1 1-2.2 1.6-3.6 1.6-.7 6.7-2.9 11.7-6.7 15.1s-9.3 5.4-16.5 6l-1-5.2c6-.5 10.4-2 13.2-4.5 2.9-2.6 4.6-6.5 5.1-11.8zm7.4-3.3c.4-.4.7-1 .7-1.6s-.2-1.2-.7-1.6c-.4-.4-1-.7-1.6-.7s-1.2.2-1.6.7-.7 1-.7 1.6.2 1.2.7 1.6c.4.4 1 .7 1.6.7.7 0 1.2-.2 1.6-.7z"/></svg>