<svg xmlns="http://www.w3.org/2000/svg" width="32" height="32" viewBox="0 0 32 32"><path d="M15.931 1.95c-7.96 0-14.412 5.28-14.412 11.795 0 5.849 5.204 10.701 12.029 11.631l-.005.002.089.01.225.028c.749.103 1.104.284 1.093 1.1-.013.923-.375 1.605-.589 2.047s-.669 2.247 1.391 1.124c1.586-.865 9.375-4.674 12.878-10.362.927-1.411 1.51-2.995 1.666-4.676l.014-.155a9.906 9.906 0 0 0 .032-.747c0-6.514-6.452-11.795-14.412-11.795zM9.885 17.149H7.14a.734.734 0 0 1-.734-.734v-5.567a.734.734 0 1 1 1.468 0v4.832h2.01a.734.734 0 1 1 0 1.469zm3.131-.734a.734.734 0 1 1-1.468 0v-5.567a.734.734 0 1 1 1.468 0v5.567zm6.705.519c-.008.008-.018.014-.027.022-.027.024-.054.049-.084.069-.021.014-.044.025-.067.037-.02.01-.038.023-.059.031-.027.011-.055.018-.083.026-.018.005-.036.012-.055.016a.78.78 0 0 1-.144.014l-.007-.001a.775.775 0 0 1-.136-.014c-.024-.005-.046-.014-.069-.021s-.046-.012-.068-.021c-.027-.011-.051-.026-.077-.04-.016-.009-.034-.016-.05-.027a.733.733 0 0 1-.221-.236l-2.851-3.766v3.391a.734.734 0 1 1-1.468 0v-5.567c0-.013.003-.024.004-.037a.747.747 0 0 1 .011-.106c.005-.027.015-.053.023-.079.006-.019.01-.039.018-.058.012-.03.029-.058.045-.086l.022-.041a.74.74 0 0 1 .205-.205c.014-.009.03-.016.044-.024.027-.015.053-.031.082-.043.021-.009.043-.014.065-.021.023-.007.047-.016.071-.021a.807.807 0 0 1 .13-.013l.014-.001.008.001a.69.69 0 0 1 .136.014c.022.005.043.013.064.019.024.007.049.013.073.023.025.01.048.024.071.037.018.01.038.018.056.03a.726.726 0 0 1 .22.235l2.851 3.767v-3.39a.734.734 0 1 1 1.468 0v5.565a.804.804 0 0 1-.014.147c-.003.016-.01.031-.014.047a.672.672 0 0 1-.028.09c-.008.02-.02.037-.029.056-.012.023-.023.048-.038.07a.648.648 0 0 1-.066.081c-.009.01-.016.021-.025.03zm4.815-4.037a.735.735 0 1 1 0 1.468h-2.01v1.314h2.01a.735.735 0 1 1 0 1.468h-2.745a.735.735 0 0 1-.735-.734v-5.567c0-.406.329-.734.735-.734h2.745a.735.735 0 1 1 0 1.468h-2.01v1.314h2.01z"/></svg>