<svg id="レイヤー_1" xmlns="http://www.w3.org/2000/svg" xmlns:xlink="http://www.w3.org/1999/xlink" viewBox="0 0 300 300"><style>.st0,.st1{fill:none}.st1{stroke:#333;stroke-width:1.44}.st2{fill:url(#SVGID_1_)}.st3{fill:#fff}.st4{fill:#fae03c}.st5{fill:#333}.st6{fill:#fae03c;stroke:#333;stroke-width:3;stroke-miterlimit:10}.st7{fill:url(#SVGID_2_)}.st8{fill:none;stroke:#333;stroke-width:3;stroke-miterlimit:10}.st9{fill:url(#SVGID_3_)}.st10{clip-path:url(#SVGID_5_);fill:#333}</style><pattern x="-640" width="72" height="72" patternUnits="userSpaceOnUse" id="_x31_0_lpi_20_x25__2" viewBox="72.2 -72 72 72" overflow="visible"><path class="st0" d="M72.2-72h72V0h-72z"/><path class="st1" d="M144-3.6h72.5M144-18h72.5M144-32.4h72.5M144-46.8h72.5M144-61.2h72.5M144-10.8h72.5M144-25.2h72.5M144-39.6h72.5M144-54h72.5M144-68.4h72.5M72-3.6h72.5M72-18h72.5M72-32.4h72.5M72-46.8h72.5M72-61.2h72.5M72-10.8h72.5M72-25.2h72.5M72-39.6h72.5M72-54h72.5M72-68.4h72.5M0-3.6h72.5M0-18h72.5M0-32.4h72.5M0-46.8h72.5M0-61.2h72.5M0-10.8h72.5M0-25.2h72.5M0-39.6h72.5M0-54h72.5M0-68.4h72.5"/></pattern><g id="レイヤー_2"><pattern id="SVGID_1_" xlink:href="#_x31_0_lpi_20_x25__2" patternTransform="rotate(-45 -9946.865 -1484.851) scale(.5)"/><circle class="st2" cx="150" cy="150" r="150"/><circle class="st3" cx="150" cy="150" r="135"/><path class="st8" d="M233.4 73.9H72.9c-2.2 0-4.1 1.7-4.1 3.9v120.4c0 2.2 1.9 4.3 4.1 4.3h76.3v10.3h-23.3c-2.2 0-4 1.8-4 4s1.8 4 4 4h55c2.2 0 4-1.8 4-4s-1.8-4-4-4h-23.6v-10.3h76.1c2.2 0 3.9-2 3.9-4.3V77.8c0-2.2-1.7-3.9-3.9-3.9zm-4.2 120.4H76.8V82h152.4v112.3zm0 0"/><path class="st4" d="M164.5 144.9l14.7-9.9h8.8s6-2 6-7.9V100s-.8-5-7-5h-30s-6 1.8-6 7.1V130s2.6 5 10.2 5h2.8l.5 9.9z"/><defs><path id="SVGID_4_" d="M113.8 92.8h83.6v90.6h-83.6z"/></defs><clipPath id="SVGID_2_"><use xlink:href="#SVGID_4_" overflow="visible"/></clipPath><path d="M148 137c-6.7 0-12.2 5.5-12.2 12.2s5.5 12.2 12.2 12.2c6.7 0 12.2-5.5 12.2-12.2 0-6.7-5.5-12.2-12.2-12.2zm0 20c-4.3 0-7.8-3.5-7.8-7.8s3.5-7.8 7.8-7.8 7.8 3.5 7.8 7.8c-.1 4.3-3.5 7.8-7.8 7.8zm0 0" clip-path="url(#SVGID_2_)" fill="#333"/><path d="M187 92.8h-27.6c-5.6 0-10.1 4.5-10.1 10.1V115h-5.9c-1.2 0-2.2 1-2.2 2.2v3.9c-2.9.7-5.7 1.8-8.2 3.4l-2.8-2.8c-.9-.9-2.3-.9-3.2 0l-6.5 6.5c-.4.4-.7 1-.7 1.6 0 .6.2 1.2.7 1.6l2.8 2.8c-1.6 2.6-2.7 5.3-3.4 8.2H116c-1.2 0-2.2 1-2.2 2.2v9.1c0 1.2 1 2.2 2.2 2.2h3.9c.7 2.9 1.8 5.7 3.4 8.2l-2.8 2.8c-.9.9-.9 2.3 0 3.2l6.5 6.5c.9.9 2.3.9 3.2 0l2.8-2.8c2.6 1.6 5.3 2.7 8.2 3.4v3.9c0 1.2 1 2.2 2.2 2.2h9.1c1.2 0 2.2-1 2.2-2.2v-3.9c2.9-.7 5.7-1.8 8.2-3.4l2.8 2.8c.9.9 2.3.9 3.2 0l6.5-6.5c.4-.4.7-1 .7-1.6 0-.6-.2-1.2-.7-1.6l-2.8-2.8c1.6-2.6 2.7-5.3 3.4-8.2h3.9c1.2 0 2.2-1 2.2-2.2v-9.1c0-1.2-1-2.2-2.2-2.2H176c-.3-1-.6-2.1-.9-3.1l4.2-3.1h7.6c5.6 0 10.1-4.5 10.1-10.1v-23.3c0-5.5-4.5-10-10-10zm-15 52.3c.2 1.1 1.1 1.9 2.2 1.9h3.5v4.7h-3.5c-1.1 0-2 .8-2.2 1.9-.6 3.6-2 6.9-4.1 9.9-.6.9-.5 2.1.2 2.9l2.5 2.5-3.3 3.3-2.5-2.5c-.8-.8-2-.9-2.9-.2-3 2.1-6.3 3.5-9.9 4.1-1.1.2-1.9 1.1-1.9 2.2v3.5h-4.7v-3.5c0-1.1-.8-2-1.9-2.2-3.6-.6-6.9-2-9.9-4.1-.9-.6-2.1-.5-2.9.2l-2.5 2.5-3.3-3.3 2.5-2.5c.8-.8.9-2 .2-2.9-2.1-3-3.5-6.3-4.1-9.9-.2-1.1-1.1-1.9-2.2-1.9h-3.5V147h3.5c1.1 0 2-.8 2.2-1.9.6-3.6 2-6.9 4.1-9.9.6-.9.5-2.1-.2-2.9l-2.5-2.5 3.3-3.3 2.5 2.5c.8.8 2 .9 2.9.2 3-2.1 6.3-3.5 9.9-4.1 1.1-.2 1.9-1.1 1.9-2.2v-3.5h3.6v6.7c0 5.6 4.5 10.1 10.1 10.1h2.3v8.4c0 .8.5 1.6 1.2 2 .3.2.7.2 1 .2.5 0 .9-.1 1.3-.4l6.2-4.4c.5 1.1.8 2.1.9 3.1zm20.6-18.9c0 3.1-2.5 5.6-5.6 5.6h-8.3c-.5 0-.9.1-1.3.4l-11.3 8.1V134c0-1.2-1-2.2-2.2-2.2h-4.5c-3.1 0-5.6-2.5-5.6-5.6v-23.3c0-3.1 2.5-5.6 5.6-5.6H187c3.1 0 5.6 2.5 5.6 5.6v23.3zm0 0" clip-path="url(#SVGID_2_)" fill="#333"/><path class="st5" d="M172.9 100.2c-5.2 0-9.4 4.2-9.4 9.4 0 1.2 1 2.2 2.2 2.2 1.2 0 2.2-1 2.2-2.2 0-2.7 2.2-4.9 4.9-4.9s4.9 2.2 4.9 4.9-3.5 6.1-5.8 8.4l-.7.7c-.9.9-.9 2.3 0 3.2.4.4 1 .7 1.6.7s1.1-.2 1.6-.7l.7-.7c3-3 7.1-7 7.1-11.6.1-5.2-4.1-9.4-9.3-9.4zm-.6 24.2a2.732 2.732 0 0 0-2.7 2.7 2.732 2.732 0 0 0 2.7 2.7 2.732 2.732 0 0 0 2.7-2.7 2.732 2.732 0 0 0-2.7-2.7zm0 0"/></g></svg>